<?xml version="1.0" encoding="UTF-8" standalone="no"?>
<svg
   viewBox="0 0 300 300"
   width="300"
   height="300"
   version="1.1"
   id="svg20"
   sodipodi:docname="wolf.svg"
   inkscape:version="1.4.2 (ebf0e940d0, 2025-05-08)"
   xmlns:inkscape="http://www.inkscape.org/namespaces/inkscape"
   xmlns:sodipodi="http://sodipodi.sourceforge.net/DTD/sodipodi-0.dtd"
   xmlns="http://www.w3.org/2000/svg"
   xmlns:svg="http://www.w3.org/2000/svg"
   xmlns:rdf="http://www.w3.org/1999/02/22-rdf-syntax-ns#"
   xmlns:cc="http://creativecommons.org/ns#">
  <defs
     id="defs20" />
  <sodipodi:namedview
     id="namedview20"
     pagecolor="#ffffff"
     bordercolor="#000000"
     borderopacity="0.25"
     inkscape:showpageshadow="2"
     inkscape:pageopacity="0.0"
     inkscape:pagecheckerboard="0"
     inkscape:deskcolor="#d1d1d1"
     inkscape:zoom="1.869119"
     inkscape:cx="104.86224"
     inkscape:cy="157.02585"
     inkscape:window-width="1920"
     inkscape:window-height="1011"
     inkscape:window-x="0"
     inkscape:window-y="0"
     inkscape:window-maximized="1"
     inkscape:current-layer="layer2" />
  <!-- Shape: wolf -->
  <metadata
     id="metadata20">
    <rdf:RDF>
      <cc:License
         rdf:about="http://creativecommons.org/publicdomain/zero/1.0/">
        <cc:permits
           rdf:resource="http://creativecommons.org/ns#Reproduction" />
        <cc:permits
           rdf:resource="http://creativecommons.org/ns#Distribution" />
        <cc:permits
           rdf:resource="http://creativecommons.org/ns#DerivativeWorks" />
      </cc:License>
      <cc:Work
         rdf:about="">
        <cc:license
           rdf:resource="http://creativecommons.org/publicdomain/zero/1.0/" />
      </cc:Work>
    </rdf:RDF>
  </metadata>
  <g
     inkscape:groupmode="layer"
     id="layer1"
     inkscape:label="Background"
     sodipodi:insensitive="true"
     style="display:none">
    <rect
       style="fill:#ff00ff;fill-opacity:1;stroke:none;stroke-width:29.4717;stroke-linecap:square;stroke-miterlimit:0"
       id="rect1"
       width="300"
       height="300"
       x="0"
       y="0" />
  </g>
  <g
     inkscape:groupmode="layer"
     id="layer2"
     inkscape:label="Shape"
     sodipodi:insensitive="true">
    <polygon
       points="122,252 114,242 102,241 89,224 94,181 64,113 46,119 31,150 32,164 61,204 57,242 85,266 91,271 101,271 96,257 89,257 70,242 75,225 97,249 112,252 "
       fill="#8D8DFF"
       stroke="#8D8DFF"
       stroke-width="1"
       id="polygon1"
       style="fill:#000000;stroke:#000000" />
    <polygon
       points="237,66 226,71 216,73 219,56 229,42 "
       fill="#8D8DFF"
       stroke="#8D8DFF"
       stroke-width="1"
       id="polygon2"
       style="fill:#000000;stroke:#000000" />
    <polygon
       points="257,70 260,89 285,110 272,124 234,116 218,134 209,150 204,163 192,178 169,185 154,189 129,189 89,180 69,166 63,113 124,110 160,111 170,104 181,106 213,69 226,62 "
       fill="#8D8DFF"
       stroke="#8D8DFF"
       stroke-width="1"
       id="polygon3"
       style="fill:#000000;stroke:#000000" />
    <line
       x1="75"
       y1="224"
       x2="89"
       y2="179"
       stroke="#ffffff"
       stroke-width="2"
       id="line5"
       style="stroke:#000000" />
    <line
       x1="80"
       y1="159"
       x2="89"
       y2="179"
       stroke="#ffffff"
       stroke-width="2"
       id="line6"
       style="stroke:#000000" />
    <polygon
       points="14,128 6,143 8,165 8,181 7,197 4,233 23,201 28,184 30,169 28,153 48,145 50,121 36,119 24,123 "
       fill="#8D8DFF"
       stroke="#8D8DFF"
       stroke-width="1"
       id="polygon7"
       style="fill:#000000;stroke:#000000" />
    <polygon
       points="197,273 202,267 187,260 186,236 194,167 171,181 178,263 187,277 "
       fill="#8D8DFF"
       stroke="#8D8DFF"
       stroke-width="1"
       id="polygon8"
       style="fill:#000000;stroke:#000000" />
    <polygon
       points="222,256 222,248 212,245 205,230 205,155 187,163 195,240 214,260 "
       fill="#8D8DFF"
       stroke="#8D8DFF"
       stroke-width="1"
       id="polygon9"
       style="fill:#000000;stroke:#000000" />
    <polygon
       points="244,68 233,73 223,75 226,58 245,44 "
       fill="#8D8DFF"
       stroke="#8D8DFF"
       stroke-width="1"
       id="polygon10"
       style="fill:#000000;stroke:#000000" />
    <line
       x1="89"
       y1="181"
       x2="112"
       y2="185"
       stroke="#ffffff"
       stroke-width="2"
       id="line10"
       style="stroke:#000000" />
    <line
       x1="31"
       y1="150"
       x2="47"
       y2="118"
       stroke="#ffffff"
       stroke-width="2"
       id="line11"
       style="stroke:#000000" />
    <polygon
       points="248,98 244,92 235,90 250,91 255,99 "
       fill="#ffffff"
       stroke="#ffffff"
       stroke-width="1"
       id="polygon11"
       style="fill:#000000;stroke:#000000" />
    <line
       x1="189"
       y1="201"
       x2="203"
       y2="161"
       stroke="#ffffff"
       stroke-width="2"
       id="line13"
       style="stroke:#000000" />
    <line
       x1="90"
       y1="262"
       x2="94"
       y2="272"
       stroke="#ffffff"
       stroke-width="2"
       id="line14"
       style="stroke:#000000" />
    <line
       x1="110"
       y1="246"
       x2="119"
       y2="252"
       stroke="#ffffff"
       stroke-width="2"
       id="line15"
       style="stroke:#000000" />
    <line
       x1="190"
       y1="266"
       x2="194"
       y2="274"
       stroke="#ffffff"
       stroke-width="2"
       id="line16"
       style="stroke:#000000" />
    <line
       x1="218"
       y1="251"
       x2="219"
       y2="257"
       stroke="#ffffff"
       stroke-width="2"
       id="line17"
       style="stroke:#000000" />
    <polygon
       points="224,72 230,67 228,54 222,62 "
       fill="#ffffff"
       stroke="#ffffff"
       stroke-width="1"
       id="polygon17"
       style="stroke:#000000" />
    <line
       x1="246"
       y1="67"
       x2="234"
       y2="64"
       stroke="#ffffff"
       stroke-width="2"
       id="line18"
       style="stroke:#000000" />
    <line
       x1="229"
       y1="45"
       x2="235"
       y2="68"
       stroke="#ffffff"
       stroke-width="2"
       id="line19"
       style="stroke:#000000" />
  </g>
</svg>
